<?xml version="1.0" encoding="UTF-8"?><svg id="Layer_1" xmlns="http://www.w3.org/2000/svg" viewBox="0 0 260.47 338.71"><defs><style>.cls-1{fill:#6ABD45;}</style></defs><path class="cls-1" d="M119.19,198.26l-60.81-77c-1.6-2.82-1.69-7.05-.23-9.95L119.19,4.32c2.82-5.6,16.28-5.8,19.38-.34l57.14,107.34c1.6,2.82,1.69,7.05.23,9.95l-57.37,76.61c-3.24,6.43-15.82,6.66-19.38.39Z"/><path class="cls-1" d="M107.39,338.71c-12.47-1.45-24.97-14.98-38.08-22.52-19.46-13.65-40.38-26.92-59.26-41-15.62-10.34-7.85-46.69-9.76-64.97-.07-14.2-.12-31.83-.18-44.71.13-9.39-.05-14.79,2.71-18.59,8.44-5.18,29.31,15.32,38.71,20.12,20.12,14.78,43.92,26.3,57.07,46.16,15.48,22.02,13.42,48.13,13.57,75.15-1.35,12.18,4.03,44-4.7,50.34l-.07.02Z"/><path class="cls-1" d="M153.18,338.71c12.47-1.45,24.97-14.98,38.08-22.52,19.46-13.65,40.38-26.92,59.26-41,9.46-6.77,9.54-17.43,9.61-28.26.05-11.82.11-24.44.16-36.71.07-14.2.12-31.83.19-44.71-.13-9.39.05-14.79-2.71-18.59-8.44-5.18-29.31,15.32-38.71,20.12-20.12,14.78-43.92,26.3-57.07,46.16-15.48,22.02-13.42,48.13-13.57,75.15,1.32,12-3.97,44.28,4.7,50.34l.07.02Z"/></svg>
