<?xml version="1.0" encoding="UTF-8"?><svg id="Layer_1" xmlns="http://www.w3.org/2000/svg" viewBox="0 0 720 720"><defs><style>.cls-1{fill:#fff;}</style></defs><path class="cls-1" d="M37.73,365.86c-3.18-.54-2.89-9.9-2.92-12.74-.16-18.36-.25-37.1.11-55.27.12-6.09,5.58-7.76,10.1-10.54,13.16-8.12,27.44-14.7,40.43-23.13,3.74-2.43,8.27-4.37,8.84-9.31,2.2-18.86-1.83-41.93-.06-61.14.11-1.19.03-2.38.66-3.46,7.32-8.94,16.55-15.93,24.97-23.72,4.19-3.88,26.56-26.09,30.15-26.03,2.02.04,2.55,3.07,2.77,4.63,1.99,14,3.62,33.64,4.2,47.8.23,5.75.84,9.95-2.47,14.85-8.74,12.89-24.5,25.76-34.26,38.38-.64.83-1.6,1.05-1.23,2.48,21.17-3.83,42.48-7.7,63.03-14.14,15.16-19.85,25.77-42.74,39.83-63.35l73.37-21.52c3.19.39-1.95,6.82-2.72,7.98-9.02,13.61-21.8,32.32-32.03,44.73-8.54,10.37-34.58,19.78-47.12,27.17-1.49.88-3.59,1.86-4.4,3.43l77.16-4.13c4.76-1.18,10.09-1.3,14.78-2.55,5.75-1.54,5.62-3.69,7.72-8.79,5.8-14.06,9.93-28.9,15.57-43.04,15.4-13.26,30.92-38.33,46.96-49.61,1.78-1.25,3.84-2.67,5.82-.87,1.12,1.63-1.05,11.7-1.28,14.49-1.49,18.01-2.09,36.25-5.43,54-13.44,12.96-30.08,22.57-44.1,34.72,27.64-5.67,57.89-9.34,83.38-21.85,17.27-8.47,33.29-19.58,50.81-27.64,2.92-.54,5.52.77,8.2,1.61,20.83,6.54,41.87,16.82,62.58,24.09l2.19,1.93c-1.65,2.03-3.69,3.44-5.83,4.89-19.74,13.3-43,23.95-63.28,36.65-19.63-4.82-38.23-13.67-57.57-19.67-14.85.8-28.9,8.27-43.33,11.57.14,1.29,1.22,1.27,2.14,1.56,6.4,2.03,18.83,2,23.49,6.23l39.46,48.92-.67,2.33c-1.78,1.17-13.09-.18-16.03-.55-19.33-2.43-39.56-8.04-58.88-11.28-1.33-.58-2.18-1.63-3.08-2.7-8.2-9.74-14.15-24.85-22.41-34.55-1.34-1.57-2.93-3.55-5.06-4.03-21.48.23-42.82,3.22-64.22,4.77-13.79,1-27.25.42-41.06,2.69-.75.12-2.48.35-2.26,1.44h44.16c.43,0,3.82,2.29,4.56,2.87,10.7,8.31,26.42,26.2,35.89,36.74,3.81,4.23,14.68,15.4,16.78,19.53.88,1.74,1.83,3.29-.42,4.29l-65.47-.3-47.04-55.31c-11.95-10.15-27.33-8.39-41.03-3.02-20.08,7.88-40.12,20.43-59.98,29.16l-12.09,7.31h119.27c.14,0,1.46,1.27,1.64,1.66v67.66c-.18.39-1.5,1.66-1.64,1.66h-48.29l-.95,229.34-70.03.12v-229.46h-52.41Z"/><path class="cls-1" d="M387.7,302.3l1.28,2.85c-2.29,80.74,2.9,163.02-.02,243.58-.92,25.33-6.6,45.55-35.89,47.45-32.24,2.09-67.05-1.34-99.54-.41-15.56-3.27-25.69-16.77-27.18-32.25l.53-253.61c.26-.82,1.02-1.36,1.84-1.45,4.13-.47,20.19,15.03,25.44,16.77,10.06,1.3,22.27-1.12,32.05.14,1.41.18,2.5.31,3.27,1.68l.37,200.03c.27,1.15,3.52,1.34,4.54,1.41,7.63.52,24.25.95,31.44,0,2.43-.32,3.62-1.05,3.71-3.71l.39-220.82c.18-.39,1.5-1.66,1.64-1.66h56.13Z"/><path class="cls-1" d="M620.87,527.64c10.84.37,21.71.71,32.59.86,4.94.07,10.29-.66,15.22-.56,3.01.06,15.54.29,16.65,1.69l-.19,65.58-15.12,1.68-115.85-.88c-.79-1.33-.9-2.85-1.01-4.36-2.5-33.63,2.14-70.33-.83-104l.59-183.5c.77-1.82,3.12-1.73,4.78-1.87,14.69-1.23,43.26-1.35,57.85,0,2.14.2,3.84.31,5.33,2.1v223.27Z"/><path class="cls-1" d="M466.52,303.13v224.51l72.43,1.02c.93,1.26.96,2.81,1.07,4.31,1.18,16.56.96,41.16,0,57.85-.1,1.67-.11,3.28-.77,4.85-36.25,1.08-72.97.56-109.51.46-3.99-.01-7.61.09-11.57.02-3.47-.07-13.96,1.44-15.04-2.22v-288.56c.97-2.11,3.01-2.82,5.18-3.07,12.58-1.46,40.72-1.04,53.71-.02,1.59.13,2.99.48,4.5.87Z"/></svg>